<?xml version="1.0" encoding="UTF-8" standalone="no"?><!DOCTYPE svg PUBLIC "-//W3C//DTD SVG 1.1//EN" "http://www.w3.org/Graphics/SVG/1.1/DTD/svg11.dtd"><svg width="256" height="256" viewBox="0 0 3000 3000" version="1.1" xmlns="http://www.w3.org/2000/svg" xmlns:xlink="http://www.w3.org/1999/xlink" xml:space="preserve" xmlns:serif="http://www.serif.com/" style="fill-rule:evenodd;clip-rule:evenodd;stroke-linejoin:round;stroke-miterlimit:2;"><g><path d="M1691.232,1852.986c-36.55,-66.57 -59.395,-127.926 -65.925,-176.222c-7.834,-59.382 -1.304,-105.07 7.834,-154.669c33.943,-189.27 66.57,-369.403 187.308,-538.448c48.295,-68.52 76.366,-86.149 103.121,-92.672c43.081,-9.791 84.846,11.75 107.69,22.837c69.836,35.246 105.73,99.21 159.249,195.8c37.854,67.228 65.266,115.524 77.013,188.612c5.222,32.64 8.485,74.404 -10.442,191.232c-11.095,65.925 -57.433,298.921 -178.17,507.112c-18.933,32.627 -41.119,65.925 -81.581,87.453c-28.071,15.01 -59.394,22.844 -84.2,20.882c-88.756,-7.821 -159.896,-137.71 -221.897,-251.917Zm524.077,222.555c134.447,-231.693 184.701,-487.533 197.102,-559.976c12.4,-74.404 17.621,-125.965 17.621,-166.426c0,-29.374 -2.611,-52.864 -6.525,-76.366c-16.969,-100.501 -54.825,-168.375 -95.288,-240.83c-60.697,-108.993 -113.562,-202.97 -225.819,-259.751c-31.982,-15.663 -115.524,-58.086 -214.063,-35.896c-91.376,20.886 -148.809,86.152 -197.104,154.68c-142.278,198.4 -178.829,403.996 -214.721,603.049c-7.188,39.816 -13.706,81.58 -13.706,130.534c0,22.844 1.304,47.637 5.214,74.404c9.796,68.52 37.854,146.189 84.2,231.035c77.657,142.279 174.26,319.144 347.204,332.852c75.063,6.53 140.329,-21.54 172.298,-38.501c83.544,-45.687 124.661,-115.522 143.588,-148.807Z" style="fill-rule:nonzero;"/><path d="M1869.403,2793.451c-246.045,-20.882 -400.08,-301.516 -537.132,-551.484c-114.22,-208.849 -135.748,-340.028 -141.621,-385.071c-18.275,-133.786 -2.62,-238.869 15.01,-339.37c70.481,-392.904 136.406,-737.503 379.844,-1078.187c99.198,-139.017 179.474,-209.502 283.899,-232.998c133.141,-30.674 249.968,28.716 303.484,55.476c172.953,87.455 254.534,232.996 364.834,430.751c73.097,130.53 135.099,242.138 161.857,405.299c14.358,86.149 17.622,184.043 -20.232,409.864c-14.358,86.807 -99.856,569.114 -354.39,1007.694c-39.812,68.532 -99.204,162.515 -212.761,223.213c-24.148,12.403 -125.319,64.609 -242.792,54.813Zm160.554,189.27c45.688,-5.872 113.562,-16.959 185.353,-57.433c85.497,-48.295 146.847,-121.384 199.059,-216.025c338.074,-606.968 404.644,-1120.598 404.644,-1120.598c18.927,-140.975 21.538,-246.057 13.706,-351.127c-4.569,-62.66 -19.58,-208.849 -80.929,-391.597c-65.266,-194.491 -170.343,-507.111 -462.731,-689.201c-107.036,-65.917 -221.907,-97.245 -221.907,-97.245c-44.372,-12.402 -84.846,-19.58 -118.776,-23.496c0,0 -19.579,-2.611 -39.816,-3.916c-89.414,-6.527 -1007.694,-0.653 -1094.501,0c-35.892,9.789 -86.149,28.063 -140.962,61.349c-97.906,59.392 -157.946,139.016 -202.977,212.766c-224.517,368.095 -286.518,911.103 -286.518,911.103c-21.54,186.005 -20.882,326.322 -20.237,411.825c1.304,213.418 4.569,456.197 94.641,742.716c50.902,161.857 90.718,282.595 202.318,402.03c114.866,122.054 247.361,178.829 327.638,205.596c601.741,26.097 1057.951,24.793 1241.994,3.253Z" style="fill-rule:nonzero;"/></g></svg>